<svg width="28" height="24" viewBox="0 0 28 24" fill="none" xmlns="http://www.w3.org/2000/svg">
<path d="M7 22C6.35833 22 5.80922 21.8043 5.35266 21.413C4.89611 21.0217 4.66744 20.5507 4.66666 20V10C4.66666 9.45 4.89533 8.97933 5.35266 8.588C5.81 8.19667 6.35911 8.00067 7 8H8.16666V6C8.16666 4.61667 8.73561 3.43767 9.8735 2.463C11.0114 1.48833 12.3869 1.00067 14 1C15.6139 1 16.9898 1.48767 18.1277 2.463C19.2656 3.43833 19.8341 4.61733 19.8333 6V8H21C21.6417 8 22.1912 8.196 22.6485 8.588C23.1058 8.98 23.3341 9.45067 23.3333 10V20C23.3333 20.55 23.1051 21.021 22.6485 21.413C22.1919 21.805 21.6424 22.0007 21 22H7ZM7 20H21V10H7V20ZM14 17C14.6417 17 15.1912 16.8043 15.6485 16.413C16.1058 16.0217 16.3341 15.5507 16.3333 15C16.3333 14.45 16.1051 13.9793 15.6485 13.588C15.1919 13.1967 14.6424 13.0007 14 13C13.3583 13 12.8092 13.196 12.3527 13.588C11.8961 13.98 11.6674 14.4507 11.6667 15C11.6667 15.55 11.8953 16.021 12.3527 16.413C12.81 16.805 13.3591 17.0007 14 17ZM10.5 8H17.5V6C17.5 5.16667 17.1597 4.45833 16.4792 3.875C15.7986 3.29167 14.9722 3 14 3C13.0278 3 12.2014 3.29167 11.5208 3.875C10.8403 4.45833 10.5 5.16667 10.5 6V8Z" fill="#B1E457"/>
</svg>
