<svg width="20" height="20" viewBox="0 0 20 20" fill="none" xmlns="http://www.w3.org/2000/svg">
<path d="M3.84413 8.27231C5.37329 11.2775 7.83693 13.7305 10.8421 15.2703L13.1784 12.9341C13.4651 12.6474 13.8898 12.5518 14.2615 12.6793C15.4509 13.0722 16.7358 13.2845 18.0525 13.2845C18.6366 13.2845 19.1145 13.7624 19.1145 14.3465V18.0525C19.1145 18.6366 18.6366 19.1145 18.0525 19.1145C8.08117 19.1145 0 11.0333 0 1.06191C0 0.477861 0.477861 0 1.06191 0H4.77861C5.36267 0 5.84053 0.477861 5.84053 1.06191C5.84053 2.38931 6.05291 3.6636 6.44582 4.85295C6.56263 5.22462 6.47768 5.63876 6.18034 5.9361L3.84413 8.27231Z" fill="#B1E457"/>
</svg>
